<svg width="45" height="57" viewBox="0 0 45 57" fill="none" xmlns="http://www.w3.org/2000/svg">
<rect x="6" width="17.641" height="32" fill="#EF865B"/>
<circle cx="23.2308" cy="16" r="16" fill="#EF865B"/>
<circle cx="23.4359" cy="16.6158" r="10.4615" fill="black"/>
<rect x="6" y="22.5635" width="17.641" height="4.51282" fill="black"/>
<circle cx="23.8462" cy="16.6155" r="1.02564" fill="#EF865B"/>
<circle cx="23.641" cy="22.5641" r="2.46154" fill="#EF865B"/>
<circle cx="23.641" cy="10.6666" r="2.46154" fill="#EF865B"/>
<circle cx="17.8974" cy="19.2819" r="2.46154" fill="#EF865B"/>
<circle cx="17.8974" cy="13.5387" r="2.46154" fill="#EF865B"/>
<circle cx="29.3846" cy="19.2819" r="2.46154" fill="#EF865B"/>
<circle cx="29.3846" cy="13.5387" r="2.46154" fill="#EF865B"/>
<path d="M2.07351 40.1818V46H1.54226V40.1818H2.07351ZM8.15163 40.1818V46H7.63459L4.19709 41.1278H4.15163V46H3.62038V40.1818H4.13459L7.58345 45.0597H7.62891V40.1818H8.15163ZM11.4031 46H9.69851V40.1818H11.5053C12.0603 40.1818 12.5347 40.2973 12.9286 40.5284C13.3245 40.7595 13.6275 41.0909 13.8377 41.5227C14.0479 41.9545 14.1531 42.4725 14.1531 43.0767C14.1531 43.6866 14.0451 44.2102 13.8292 44.6477C13.6152 45.0833 13.3027 45.4176 12.8917 45.6506C12.4826 45.8835 11.9864 46 11.4031 46ZM10.2298 45.5227H11.3718C11.8718 45.5227 12.2904 45.4242 12.6275 45.2273C12.9646 45.0303 13.2174 44.7491 13.386 44.3835C13.5546 44.018 13.6388 43.5824 13.6388 43.0767C13.637 42.5748 13.5536 42.143 13.3888 41.7812C13.226 41.4195 12.9835 41.142 12.6616 40.9489C12.3415 40.7557 11.9457 40.6591 11.4741 40.6591H10.2298V45.5227ZM15.9719 40.1818V46H15.4407V40.1818H15.9719ZM17.5188 46V40.1818H20.8938V40.6591H18.0501V42.8494H20.7148V43.3267H18.0501V45.5227H20.9506V46H17.5188ZM24.5188 46V40.1818H26.3967C26.8095 40.1818 27.1542 40.2614 27.4308 40.4205C27.7092 40.5777 27.9184 40.7917 28.0586 41.0625C28.2006 41.3333 28.2717 41.6383 28.2717 41.9773C28.2717 42.3163 28.2016 42.6222 28.0614 42.8949C27.9213 43.1657 27.713 43.3807 27.4364 43.5398C27.1599 43.697 26.8162 43.7756 26.4052 43.7756H24.9279V43.2983H26.391C26.6959 43.2983 26.9487 43.2415 27.1495 43.1278C27.3503 43.0123 27.4999 42.8551 27.5984 42.6562C27.6987 42.4574 27.7489 42.2311 27.7489 41.9773C27.7489 41.7235 27.6987 41.4972 27.5984 41.2983C27.4999 41.0994 27.3493 40.9432 27.1467 40.8295C26.9459 40.7159 26.6912 40.6591 26.3825 40.6591H25.0501V46H24.5188ZM29.5188 46V40.1818H30.0501V45.5227H32.8228V46H29.5188ZM37.8967 40.1818H38.4279V44.0341C38.4279 44.4299 38.3351 44.7841 38.1495 45.0966C37.9639 45.4072 37.7054 45.6525 37.3739 45.8324C37.0444 46.0104 36.6609 46.0994 36.2234 46.0994C35.7878 46.0994 35.4042 46.0095 35.0728 45.8295C34.7414 45.6496 34.4828 45.4044 34.2972 45.0938C34.1116 44.7831 34.0188 44.4299 34.0188 44.0341V40.1818H34.5501V43.9972C34.5501 44.3059 34.6192 44.5814 34.7575 44.8239C34.8957 45.0644 35.0898 45.2538 35.3398 45.392C35.5917 45.5303 35.8862 45.5994 36.2234 45.5994C36.5605 45.5994 36.855 45.5303 37.1069 45.392C37.3588 45.2538 37.5529 45.0644 37.6893 44.8239C37.8275 44.5814 37.8967 44.3059 37.8967 43.9972V40.1818ZM43.131 41.6364C43.0988 41.3125 42.9558 41.0549 42.7021 40.8636C42.4483 40.6723 42.1291 40.5767 41.7447 40.5767C41.4738 40.5767 41.2352 40.6231 41.0288 40.7159C40.8242 40.8087 40.6632 40.9375 40.5458 41.1023C40.4303 41.2652 40.3725 41.4508 40.3725 41.6591C40.3725 41.8125 40.4057 41.947 40.4719 42.0625C40.5382 42.178 40.6272 42.2775 40.739 42.3608C40.8526 42.4422 40.9776 42.5123 41.114 42.571C41.2522 42.6297 41.3915 42.679 41.5316 42.7188L42.1452 42.8949C42.3308 42.946 42.5165 43.0114 42.7021 43.0909C42.8877 43.1705 43.0572 43.2708 43.2106 43.392C43.3659 43.5114 43.4899 43.6581 43.5827 43.8324C43.6774 44.0047 43.7248 44.2121 43.7248 44.4545C43.7248 44.7652 43.6443 45.0445 43.4833 45.2926C43.3223 45.5407 43.0913 45.7377 42.7901 45.8835C42.489 46.0275 42.1282 46.0994 41.7077 46.0994C41.3119 46.0994 40.9682 46.0341 40.6765 45.9034C40.3848 45.7708 40.1557 45.5881 39.989 45.3551C39.8223 45.1222 39.7286 44.8523 39.7077 44.5455H40.2532C40.2721 44.7746 40.3479 44.9687 40.4805 45.1278C40.613 45.2869 40.7854 45.4081 40.9975 45.4915C41.2096 45.5729 41.4464 45.6136 41.7077 45.6136C41.9975 45.6136 42.2551 45.5653 42.4805 45.4688C42.7077 45.3703 42.8858 45.2339 43.0146 45.0597C43.1452 44.8835 43.2106 44.679 43.2106 44.446C43.2106 44.2491 43.1594 44.0843 43.0572 43.9517C42.9549 43.8172 42.8119 43.7045 42.6282 43.6136C42.4464 43.5227 42.2352 43.4422 41.9947 43.3722L41.2987 43.1676C40.8422 43.0312 40.488 42.8428 40.2362 42.6023C39.9843 42.3617 39.8583 42.0549 39.8583 41.6818C39.8583 41.3693 39.9416 41.0947 40.1083 40.858C40.2769 40.6193 40.5041 40.4337 40.7901 40.3011C41.078 40.1667 41.4009 40.0994 41.7589 40.0994C42.1206 40.0994 42.4407 40.1657 42.7191 40.2983C42.9975 40.4309 43.2182 40.6136 43.381 40.8466C43.5458 41.0777 43.6339 41.3409 43.6452 41.6364H43.131ZM6.16335 56V50.1818H8.04119C8.45407 50.1818 8.79877 50.2614 9.07528 50.4205C9.35369 50.5777 9.56297 50.7917 9.70312 51.0625C9.84517 51.3333 9.91619 51.6383 9.91619 51.9773C9.91619 52.3163 9.84612 52.6222 9.70597 52.8949C9.56581 53.1657 9.35748 53.3807 9.08097 53.5398C8.80445 53.697 8.4607 53.7756 8.04972 53.7756H6.57244V53.2983H8.03551C8.34044 53.2983 8.59328 53.2415 8.79403 53.1278C8.99479 53.0123 9.14441 52.8551 9.2429 52.6562C9.34328 52.4574 9.39347 52.2311 9.39347 51.9773C9.39347 51.7235 9.34328 51.4972 9.2429 51.2983C9.14441 51.0994 8.99384 50.9432 8.79119 50.8295C8.59044 50.7159 8.3357 50.6591 8.02699 50.6591H6.6946V56H6.16335ZM15.9332 53.0909C15.9332 53.697 15.8253 54.2244 15.6094 54.6733C15.3935 55.1203 15.0961 55.4669 14.7173 55.7131C14.3404 55.9574 13.9067 56.0795 13.4162 56.0795C12.9257 56.0795 12.491 55.9574 12.1122 55.7131C11.7353 55.4669 11.4389 55.1203 11.223 54.6733C11.009 54.2244 10.902 53.697 10.902 53.0909C10.902 52.4848 11.009 51.9583 11.223 51.5114C11.4389 51.0625 11.7363 50.7159 12.1151 50.4716C12.4938 50.2254 12.9276 50.1023 13.4162 50.1023C13.9067 50.1023 14.3404 50.2254 14.7173 50.4716C15.0961 50.7159 15.3935 51.0625 15.6094 51.5114C15.8253 51.9583 15.9332 52.4848 15.9332 53.0909ZM15.4162 53.0909C15.4162 52.5701 15.3291 52.1241 15.1548 51.7528C14.9806 51.3797 14.7429 51.0947 14.4418 50.8977C14.1406 50.7008 13.7988 50.6023 13.4162 50.6023C13.0355 50.6023 12.6946 50.7008 12.3935 50.8977C12.0923 51.0947 11.8537 51.3788 11.6776 51.75C11.5033 52.1212 11.4162 52.5682 11.4162 53.0909C11.4162 53.6117 11.5033 54.0578 11.6776 54.429C11.8518 54.8002 12.0895 55.0852 12.3906 55.2841C12.6918 55.4811 13.0336 55.5795 13.4162 55.5795C13.7988 55.5795 14.1406 55.4811 14.4418 55.2841C14.7448 55.0871 14.9834 54.803 15.1577 54.4318C15.3319 54.0587 15.4181 53.6117 15.4162 53.0909ZM17.218 56V50.1818H17.7493V52.8494H21.0504V50.1818H21.5817V56H21.0504V53.3267H17.7493V56H17.218ZM23.1328 56H22.576L24.6925 50.1818H25.2607L27.3771 56H26.8203L24.9964 50.8722H24.9567L23.1328 56ZM23.5334 53.7699H26.4197V54.2472H23.5334V53.7699ZM32.9055 50.1818V56H32.3885L28.951 51.1278H28.9055V56H28.3743V50.1818H28.8885L32.3374 55.0597H32.3828V50.1818H32.9055ZM38.478 52C38.425 51.8068 38.3473 51.6259 38.245 51.4574C38.1428 51.2869 38.0159 51.1383 37.8643 51.0114C37.7147 50.8826 37.5414 50.7822 37.3445 50.7102C37.1494 50.6383 36.9316 50.6023 36.6911 50.6023C36.3123 50.6023 35.9732 50.7008 35.674 50.8977C35.3748 51.0947 35.138 51.3788 34.9638 51.75C34.7914 52.1212 34.7053 52.5682 34.7053 53.0909C34.7053 53.6117 34.7924 54.0578 34.9666 54.429C35.1409 54.8002 35.3795 55.0852 35.6825 55.2841C35.9875 55.4811 36.3359 55.5795 36.728 55.5795C37.0859 55.5795 37.4022 55.5 37.6768 55.3409C37.9515 55.1818 38.1655 54.9545 38.3189 54.6591C38.4742 54.3636 38.55 54.0123 38.5462 53.6051L38.7166 53.6591H36.853V53.1818H39.0632V53.6591C39.0632 54.1553 38.9628 54.5843 38.7621 54.946C38.5613 55.3078 38.2857 55.5871 37.9354 55.7841C37.585 55.9811 37.1825 56.0795 36.728 56.0795C36.2204 56.0795 35.7763 55.9574 35.3956 55.7131C35.0149 55.4669 34.7185 55.1203 34.5064 54.6733C34.2962 54.2244 34.1911 53.697 34.1911 53.0909C34.1911 52.6345 34.2517 52.2225 34.3729 51.8551C34.4941 51.4877 34.6655 51.1733 34.8871 50.9119C35.1106 50.6506 35.3748 50.4508 35.6797 50.3125C35.9846 50.1723 36.3217 50.1023 36.6911 50.1023C37.0092 50.1023 37.3 50.1525 37.5632 50.2528C37.8284 50.3532 38.0613 50.4915 38.2621 50.6676C38.4647 50.8419 38.6304 51.0436 38.7592 51.2727C38.8899 51.5 38.978 51.7424 39.0234 52H38.478Z" fill="#EF865B"/>
</svg>
